<mxfile host="www.draw.io" modified="2020-01-14T05:22:33.812Z" agent="Mozilla/5.0 (Windows NT 10.0; Win64; x64; rv:72.0) Gecko/20100101 Firefox/72.0" etag="ATNuRE8uHueSazSDqV2S" version="12.5.1" type="github">
  <diagram id="cX1kcf-TOJa06qp-Pxkb" name="Page-1">
    <mxGraphModel dx="399" dy="307" grid="1" gridSize="10" guides="1" tooltips="1" connect="1" arrows="1" fold="1" page="1" pageScale="1" pageWidth="850" pageHeight="1100" math="0" shadow="0">
      <root>
        <mxCell id="0"/>
        <mxCell id="1" parent="0"/>
        <mxCell id="jdfScZ0ZPwgl5i7lZq6P-20" style="edgeStyle=orthogonalEdgeStyle;curved=1;comic=1;orthogonalLoop=1;jettySize=auto;html=1;exitX=1;exitY=0.5;exitDx=0;exitDy=0;entryX=0.5;entryY=1;entryDx=0;entryDy=0;" edge="1" parent="1" source="jdfScZ0ZPwgl5i7lZq6P-21">
          <mxGeometry relative="1" as="geometry">
            <Array as="points">
              <mxPoint x="339" y="220"/>
              <mxPoint x="339" y="280"/>
              <mxPoint x="140" y="280"/>
            </Array>
            <mxPoint x="140.28571428571433" y="240.1428571428571" as="targetPoint"/>
          </mxGeometry>
        </mxCell>
        <mxCell id="jdfScZ0ZPwgl5i7lZq6P-22" value="" style="edgeStyle=orthogonalEdgeStyle;rounded=0;orthogonalLoop=1;jettySize=auto;html=1;comic=1;" edge="1" parent="1" source="jdfScZ0ZPwgl5i7lZq6P-23">
          <mxGeometry relative="1" as="geometry">
            <mxPoint x="120.5" y="100" as="targetPoint"/>
          </mxGeometry>
        </mxCell>
        <mxCell id="jdfScZ0ZPwgl5i7lZq6P-23" value="0" style="html=1;whiteSpace=wrap;comic=1;strokeWidth=2;fontFamily=Comic Sans MS;fontStyle=1;rounded=1;arcSize=50;" vertex="1" parent="1">
          <mxGeometry x="40.5" y="80" width="40" height="40" as="geometry"/>
        </mxCell>
        <mxCell id="jdfScZ0ZPwgl5i7lZq6P-24" style="edgeStyle=orthogonalEdgeStyle;rounded=0;comic=1;orthogonalLoop=1;jettySize=auto;html=1;exitX=1;exitY=0.5;exitDx=0;exitDy=0;entryX=0;entryY=0.5;entryDx=0;entryDy=0;labelBackgroundColor=none;fontFamily=Comic Sans MS;fontSize=10;fontColor=#000000;" edge="1" parent="1">
          <mxGeometry relative="1" as="geometry">
            <mxPoint x="160.66666666666669" y="100" as="sourcePoint"/>
            <mxPoint x="200.66666666666669" y="100" as="targetPoint"/>
          </mxGeometry>
        </mxCell>
        <mxCell id="jdfScZ0ZPwgl5i7lZq6P-27" value="&lt;font style=&quot;font-size: 20px&quot;&gt;Examples&lt;/font&gt;" style="html=1;whiteSpace=wrap;comic=1;strokeWidth=2;fontFamily=Comic Sans MS;fontStyle=1;fillColor=#f5f5f5;strokeColor=#666666;fontColor=#333333;" vertex="1" parent="1">
          <mxGeometry x="40" y="40" width="110" height="30" as="geometry"/>
        </mxCell>
        <mxCell id="jdfScZ0ZPwgl5i7lZq6P-38" value="1" style="html=1;whiteSpace=wrap;comic=1;strokeWidth=2;fontFamily=Comic Sans MS;fontStyle=1;rounded=1;arcSize=50;" vertex="1" parent="1">
          <mxGeometry x="120" y="80" width="40" height="40" as="geometry"/>
        </mxCell>
        <mxCell id="jdfScZ0ZPwgl5i7lZq6P-42" style="edgeStyle=orthogonalEdgeStyle;orthogonalLoop=1;jettySize=auto;html=1;exitX=1;exitY=0.5;exitDx=0;exitDy=0;entryX=0.5;entryY=1;entryDx=0;entryDy=0;comic=1;curved=1;" edge="1" parent="1" source="jdfScZ0ZPwgl5i7lZq6P-40" target="jdfScZ0ZPwgl5i7lZq6P-23">
          <mxGeometry relative="1" as="geometry">
            <Array as="points">
              <mxPoint x="260" y="100"/>
              <mxPoint x="260" y="150"/>
              <mxPoint x="61" y="150"/>
            </Array>
          </mxGeometry>
        </mxCell>
        <mxCell id="jdfScZ0ZPwgl5i7lZq6P-40" value="2" style="html=1;whiteSpace=wrap;comic=1;strokeWidth=2;fontFamily=Comic Sans MS;fontStyle=1;rounded=1;arcSize=50;" vertex="1" parent="1">
          <mxGeometry x="200" y="80" width="40" height="40" as="geometry"/>
        </mxCell>
        <mxCell id="jdfScZ0ZPwgl5i7lZq6P-43" value="" style="edgeStyle=orthogonalEdgeStyle;rounded=0;orthogonalLoop=1;jettySize=auto;html=1;comic=1;" edge="1" parent="1" source="jdfScZ0ZPwgl5i7lZq6P-44">
          <mxGeometry relative="1" as="geometry">
            <mxPoint x="120.5" y="190" as="targetPoint"/>
          </mxGeometry>
        </mxCell>
        <mxCell id="jdfScZ0ZPwgl5i7lZq6P-44" value="0" style="html=1;whiteSpace=wrap;comic=1;strokeWidth=2;fontFamily=Comic Sans MS;fontStyle=1;rounded=1;arcSize=50;" vertex="1" parent="1">
          <mxGeometry x="40.5" y="170" width="40" height="40" as="geometry"/>
        </mxCell>
        <mxCell id="jdfScZ0ZPwgl5i7lZq6P-45" style="edgeStyle=orthogonalEdgeStyle;rounded=0;comic=1;orthogonalLoop=1;jettySize=auto;html=1;exitX=1;exitY=0.5;exitDx=0;exitDy=0;entryX=0;entryY=0.5;entryDx=0;entryDy=0;labelBackgroundColor=none;fontFamily=Comic Sans MS;fontSize=10;fontColor=#000000;" edge="1" parent="1">
          <mxGeometry relative="1" as="geometry">
            <mxPoint x="160.66666666666674" y="190" as="sourcePoint"/>
            <mxPoint x="200.66666666666674" y="190" as="targetPoint"/>
          </mxGeometry>
        </mxCell>
        <mxCell id="jdfScZ0ZPwgl5i7lZq6P-46" value="1" style="html=1;whiteSpace=wrap;comic=1;strokeWidth=2;fontFamily=Comic Sans MS;fontStyle=1;rounded=1;arcSize=50;" vertex="1" parent="1">
          <mxGeometry x="120" y="170" width="40" height="40" as="geometry"/>
        </mxCell>
        <mxCell id="jdfScZ0ZPwgl5i7lZq6P-48" value="2" style="html=1;whiteSpace=wrap;comic=1;strokeWidth=2;fontFamily=Comic Sans MS;fontStyle=1;rounded=1;arcSize=50;" vertex="1" parent="1">
          <mxGeometry x="200" y="170" width="40" height="40" as="geometry"/>
        </mxCell>
        <mxCell id="jdfScZ0ZPwgl5i7lZq6P-49" style="edgeStyle=orthogonalEdgeStyle;rounded=0;comic=1;orthogonalLoop=1;jettySize=auto;html=1;exitX=1;exitY=0.5;exitDx=0;exitDy=0;entryX=0;entryY=0.5;entryDx=0;entryDy=0;labelBackgroundColor=none;fontFamily=Comic Sans MS;fontSize=10;fontColor=#000000;" edge="1" parent="1">
          <mxGeometry relative="1" as="geometry">
            <mxPoint x="239.99666666666673" y="189.83" as="sourcePoint"/>
            <mxPoint x="279.9966666666667" y="189.83" as="targetPoint"/>
          </mxGeometry>
        </mxCell>
        <mxCell id="jdfScZ0ZPwgl5i7lZq6P-50" value="3" style="html=1;whiteSpace=wrap;comic=1;strokeWidth=2;fontFamily=Comic Sans MS;fontStyle=1;rounded=1;arcSize=50;" vertex="1" parent="1">
          <mxGeometry x="280" y="170" width="40" height="40" as="geometry"/>
        </mxCell>
      </root>
    </mxGraphModel>
  </diagram>
</mxfile>
